<?xml version="1.0" encoding="utf-8"?>
<!-- Generator: Adobe Illustrator 24.0.0, SVG Export Plug-In . SVG Version: 6.00 Build 0)  -->
<svg version="1.1" id="Layer_1" focusable="false" xmlns="http://www.w3.org/2000/svg" xmlns:xlink="http://www.w3.org/1999/xlink"
	 x="0px" y="0px" viewBox="0 0 100 100" style="enable-background:new 0 0 100 100;" xml:space="preserve">
<style type="text/css">
	.st0{fill:#4154F1;}
	.st1{fill:#FFFFFF;}
</style>
<rect class="st0" width="100" height="100"/>
<path class="st1" d="M45.8,75.9l-6.2-1.8c-0.6-0.2-1-0.9-0.8-1.5l13.9-47.7c0.2-0.6,0.9-1,1.5-0.8l6.2,1.8c0.6,0.2,1,0.9,0.8,1.5
	L47.3,75.1C47.1,75.7,46.5,76.1,45.8,75.9z M34.3,64.5l4.4-4.7c0.5-0.5,0.4-1.3-0.1-1.7L29.4,50l9.2-8.1c0.5-0.5,0.6-1.2,0.1-1.7
	l-4.4-4.7c-0.5-0.5-1.2-0.5-1.7-0.1L17.9,49.1c-0.5,0.5-0.5,1.3,0,1.8l14.6,13.7C33,65.1,33.8,65,34.3,64.5L34.3,64.5z M67.5,64.6
	l14.6-13.7c0.5-0.5,0.5-1.3,0-1.8L67.5,35.4c-0.5-0.5-1.3-0.4-1.7,0.1l-4.4,4.7c-0.5,0.5-0.4,1.3,0.1,1.7l9.2,8.1l-9.2,8.1
	c-0.5,0.5-0.6,1.2-0.1,1.7l4.4,4.7C66.2,65,67,65.1,67.5,64.6L67.5,64.6z"/>
</svg>
