<?xml version="1.0" encoding="utf-8"?>
<!-- Generator: Adobe Illustrator 24.0.0, SVG Export Plug-In . SVG Version: 6.00 Build 0)  -->
<svg version="1.1" id="Layer_1" focusable="false" xmlns="http://www.w3.org/2000/svg" xmlns:xlink="http://www.w3.org/1999/xlink"
	 x="0px" y="0px" viewBox="0 0 100 100" style="enable-background:new 0 0 100 100;" xml:space="preserve">
<style type="text/css">
	.st0{fill:#4154F1;}
	.st1{fill:#FFFFFF;}
</style>
<rect class="st0" width="100" height="100"/>
<path class="st1" d="M75,27.8L63.2,16c-1.3-1.3-3-2-4.8-2H29.8C26,14,23,17,23,20.8v58.5c0,3.7,3,6.8,6.8,6.8h40.5
	c3.7,0,6.8-3,6.8-6.8V32.5C77,30.8,76.3,29,75,27.8z M69.7,32H59V21.3L69.7,32z M29.8,79.3V20.8h22.5v14.6c0,1.9,1.5,3.4,3.4,3.4
	h14.6v40.5H29.8z M61.9,49.5l-7.4,7.4v-5.3c0-1.6-1.3-2.8-2.8-2.8H37.1c-1.6,0-2.8,1.3-2.8,2.8v14.6c0,1.6,1.3,2.8,2.8,2.8h14.6
	c1.6,0,2.8-1.3,2.8-2.8v-5.3l7.4,7.4c1.4,1.4,3.8,0.4,3.8-1.6V51.1C65.8,49.1,63.3,48.1,61.9,49.5L61.9,49.5z"/>
</svg>
