<?xml version="1.0" encoding="utf-8"?>
<!-- Generator: Adobe Illustrator 24.0.0, SVG Export Plug-In . SVG Version: 6.00 Build 0)  -->
<svg version="1.1" id="Layer_1" focusable="false" xmlns="http://www.w3.org/2000/svg" xmlns:xlink="http://www.w3.org/1999/xlink"
	 x="0px" y="0px" viewBox="0 0 100 100" style="enable-background:new 0 0 100 100;" xml:space="preserve">
<style type="text/css">
	.st0{fill:#4154F1;}
	.st1{fill:#FFFFFF;}
</style>
<rect class="st0" width="100" height="100"/>
<path class="st1" d="M76.1,25.3c-7.5-6.3-19-5.3-26.1,1.9C42.9,20,31.4,19,23.9,25.3c-9.7,8.2-8.3,21.5-1.4,28.5l22.6,23
	c1.3,1.3,3,2,4.8,2c1.8,0,3.6-0.7,4.8-2l22.6-23C84.4,46.8,85.8,33.5,76.1,25.3z M73,49.5l-22.6,23c-0.3,0.3-0.6,0.3-0.9,0L27,49.5
	c-4.7-4.8-5.7-13.9,0.9-19.4c5-4.2,12.7-3.6,17.6,1.4L50,36l4.5-4.6c4.9-5,12.6-5.6,17.6-1.4C78.7,35.6,77.7,44.7,73,49.5L73,49.5z"
	/>
</svg>
