<?xml version="1.0" encoding="utf-8"?>
<!-- Generator: Adobe Illustrator 24.0.0, SVG Export Plug-In . SVG Version: 6.00 Build 0)  -->
<svg version="1.1" id="Layer_1" focusable="false" xmlns="http://www.w3.org/2000/svg" xmlns:xlink="http://www.w3.org/1999/xlink"
	 x="0px" y="0px" viewBox="0 0 100 100" style="enable-background:new 0 0 100 100;" xml:space="preserve">
<style type="text/css">
	.st0{fill:#4154F1;}
	.st1{fill:#FFFFFF;}
</style>
<rect class="st0" width="100" height="100"/>
<path class="st1" d="M38.9,56.7c-5,0.3-9.6,2.2-12.2,9c-0.3,0.8-1,1.2-1.8,1.2c-1.4,0-5.7-3.5-6.9-4.3C18,73,22.7,82,34,82
	c9.5,0,16-5.5,16-15c0-0.4-0.1-0.8-0.1-1.1L38.9,56.7L38.9,56.7z M75.2,18c-1.9,0-3.7,0.8-5,2.1C44.7,42.9,42,43.4,42,50.1
	c0,1.7,0.4,3.3,1.1,4.8l8,6.6c0.9,0.2,1.8,0.4,2.8,0.4c7.8,0,12.3-5.7,26.4-32.1c0.9-1.8,1.7-3.7,1.7-5.7C82,20.6,78.7,18,75.2,18z"
	/>
</svg>
