<?xml version="1.0" encoding="utf-8"?>
<!-- Generator: Adobe Illustrator 24.0.0, SVG Export Plug-In . SVG Version: 6.00 Build 0)  -->
<svg version="1.1" xmlns="http://www.w3.org/2000/svg" xmlns:xlink="http://www.w3.org/1999/xlink" x="0px" y="0px"
	 viewBox="0 0 100 100" style="enable-background:new 0 0 100 100;" xml:space="preserve">
<style type="text/css">
	.st0{fill:#4154F1;}
	.st1{fill:#FFFFFF;}
</style>
<g id="Layer_2">
	<rect class="st0" width="100" height="100"/>
</g>
<g id="Layer_1" focusable="false">
	<path class="st1" d="M83.2,74.9L69.9,61.6c-0.6-0.6-1.4-0.9-2.3-0.9h-2.2c3.7-4.7,5.9-10.6,5.9-17.1c0-15.3-12.4-27.8-27.8-27.8
		S15.8,28.3,15.8,43.6s12.4,27.8,27.8,27.8c6.4,0,12.4-2.2,17.1-5.9v2.2c0,0.9,0.3,1.7,0.9,2.3l13.3,13.3c1.3,1.3,3.3,1.3,4.5,0
		l3.8-3.8C84.5,78.2,84.5,76.2,83.2,74.9z M43.6,60.7c-9.4,0-17.1-7.6-17.1-17.1c0-9.4,7.6-17.1,17.1-17.1c9.4,0,17.1,7.6,17.1,17.1
		C60.7,53,53,60.7,43.6,60.7z"/>
</g>
</svg>
